<svg width="24" height="24" viewBox="0 0 24 24" fill="none" xmlns="http://www.w3.org/2000/svg">
<path fill-rule="evenodd" clip-rule="evenodd" d="M16.25 12H14.25L13 14.5H11L12.25 12H10.25L9 14.5H7L8.25 12H5V19C5 20.1046 5.89543 21 7 21H18C19.1046 21 20 20.1046 20 19V12H18.25L17 14.5H15L16.25 12Z" fill="white" style="fill:white;fill-opacity:1;"/>
<path fill-rule="evenodd" clip-rule="evenodd" d="M13.9258 3.95501L12.1937 4.95501L12.3612 7.74507L14.0933 6.74507L13.9258 3.95501ZM15.8253 5.74507L17.9904 4.49507L17.7404 4.06205C17.3092 3.31517 16.469 2.95164 15.666 3.09102L15.8253 5.74507ZM8.72966 6.95499L10.4617 5.95501L10.6292 8.74507L8.89713 9.74506L8.72966 6.95499ZM6.99761 7.95499L5.48205 8.83C4.52547 9.38229 4.19772 10.6055 4.75 11.5621L5 11.9951L7.16508 10.7451L6.99761 7.95499Z" fill="white" style="fill:white;fill-opacity:1;"/>
</svg>
