<svg width="24" height="24" viewBox="0 0 24 24" fill="none" xmlns="http://www.w3.org/2000/svg">
<path d="M19 15V15.8C19 16.9201 19 17.4802 18.782 17.908C18.5903 18.2843 18.2843 18.5903 17.908 18.782C17.4802 19 16.9201 19 15.8 19H8.2C7.07989 19 6.51984 19 6.09202 18.782C5.71569 18.5903 5.40973 18.2843 5.21799 17.908C5 17.4802 5 16.9201 5 15.8V8.2C5 7.07989 5 6.51984 5.21799 6.09202C5.40973 5.71569 5.71569 5.40973 6.09202 5.21799C6.51984 5 7.07989 5 8.2 5H9" stroke="white" style="stroke:white;stroke-opacity:1;" stroke-width="2" stroke-linecap="round" stroke-linejoin="round"/>
<path d="M13 5H19M19 5V11M19 5L11 13" stroke="white" style="stroke:white;stroke-opacity:1;" stroke-width="2" stroke-linecap="round" stroke-linejoin="round"/>
</svg>
