<svg width="24" height="24" viewBox="0 0 24 24" fill="none" xmlns="http://www.w3.org/2000/svg">
<path fill-rule="evenodd" clip-rule="evenodd" d="M2 6.2C2 5.0799 2 4.51984 2.21799 4.09202C2.40973 3.71569 2.71569 3.40973 3.09202 3.21799C3.51984 3 4.0799 3 5.2 3H18.8C19.9201 3 20.4802 3 20.908 3.21799C21.2843 3.40973 21.5903 3.71569 21.782 4.09202C22 4.51984 22 5.0799 22 6.2V17.8C22 18.9201 22 19.4802 21.782 19.908C21.5903 20.2843 21.2843 20.5903 20.908 20.782C20.4802 21 19.9201 21 18.8 21H5.2C4.0799 21 3.51984 21 3.09202 20.782C2.71569 20.5903 2.40973 20.2843 2.21799 19.908C2 19.4802 2 18.9201 2 17.8V6.2ZM7 14.6C7 14.0399 7 13.7599 7.10899 13.546C7.20487 13.3578 7.35785 13.2049 7.54601 13.109C7.75992 13 8.03995 13 8.6 13H15.4C15.9601 13 16.2401 13 16.454 13.109C16.6422 13.2049 16.7951 13.3578 16.891 13.546C17 13.7599 17 14.0399 17 14.6V17.4C17 17.9601 17 18.2401 16.891 18.454C16.7951 18.6422 16.6422 18.7951 16.454 18.891C16.2401 19 15.9601 19 15.4 19H8.6C8.03995 19 7.75992 19 7.54601 18.891C7.35785 18.7951 7.20487 18.6422 7.10899 18.454C7 18.2401 7 17.9601 7 17.4V14.6ZM7.10899 5.54601C7 5.75992 7 6.03995 7 6.6V9.4C7 9.96005 7 10.2401 7.10899 10.454C7.20487 10.6422 7.35785 10.7951 7.54601 10.891C7.75992 11 8.03995 11 8.6 11H15.4C15.9601 11 16.2401 11 16.454 10.891C16.6422 10.7951 16.7951 10.6422 16.891 10.454C17 10.2401 17 9.96005 17 9.4V6.6C17 6.03995 17 5.75992 16.891 5.54601C16.7951 5.35785 16.6422 5.20487 16.454 5.10899C16.2401 5 15.9601 5 15.4 5H8.6C8.03995 5 7.75992 5 7.54601 5.10899C7.35785 5.20487 7.20487 5.35785 7.10899 5.54601ZM18 10C18 9.44772 18.4477 9 19 9H20C20.5523 9 21 9.44772 21 10C21 10.5523 20.5523 11 20 11H19C18.4477 11 18 10.5523 18 10ZM19 5C18.4477 5 18 5.44772 18 6C18 6.55228 18.4477 7 19 7H20C20.5523 7 21 6.55228 21 6C21 5.44772 20.5523 5 20 5H19ZM3 10C3 9.44772 3.44772 9 4 9H5C5.55228 9 6 9.44772 6 10C6 10.5523 5.55228 11 5 11H4C3.44772 11 3 10.5523 3 10ZM4 5C3.44772 5 3 5.44772 3 6C3 6.55228 3.44772 7 4 7H5C5.55228 7 6 6.55228 6 6C6 5.44772 5.55228 5 5 5H4ZM18 18C18 17.4477 18.4477 17 19 17H20C20.5523 17 21 17.4477 21 18C21 18.5523 20.5523 19 20 19H19C18.4477 19 18 18.5523 18 18ZM4 17C3.44772 17 3 17.4477 3 18C3 18.5523 3.44772 19 4 19H5C5.55228 19 6 18.5523 6 18C6 17.4477 5.55228 17 5 17H4ZM18 14C18 13.4477 18.4477 13 19 13H20C20.5523 13 21 13.4477 21 14C21 14.5523 20.5523 15 20 15H19C18.4477 15 18 14.5523 18 14ZM4 13C3.44772 13 3 13.4477 3 14C3 14.5523 3.44772 15 4 15H5C5.55228 15 6 14.5523 6 14C6 13.4477 5.55228 13 5 13H4Z" fill="white" style="fill:white;fill-opacity:1;"/>
</svg>
