<svg width="24" height="24" viewBox="0 0 24 24" fill="none" xmlns="http://www.w3.org/2000/svg">
<path fill-rule="evenodd" clip-rule="evenodd" d="M13.8488 5.24673C13.3688 5.11563 13 4.70132 13 4.20374V4.17155C13 3.57577 13.5203 3.10776 14.0998 3.24625C18.0575 4.19214 21 7.75244 21 12C21 14.8273 19.6963 17.35 17.6573 19H21.5C22.0523 19 22.5 19.4477 22.5 20C22.5 20.5523 22.0523 21 21.5 21H15.5C14.9477 21 14.5 20.5523 14.5 20V14C14.5 13.4477 14.9477 13 15.5 13C16.0523 13 16.5 13.4477 16.5 14V17.3621C18.0285 16.078 19 14.1525 19 12C19 8.77396 16.8177 6.05763 13.8488 5.24673Z" fill="white" style="fill:white;fill-opacity:1;"/>
<path fill-rule="evenodd" clip-rule="evenodd" d="M10.1512 18.7497C10.6312 18.8808 11 19.2951 11 19.7927V19.8249C11 20.4207 10.4797 20.8887 9.9002 20.7502C5.94246 19.8043 3 16.244 3 11.9964C3 9.16917 4.30367 6.64639 6.34267 4.99644H2.5C1.94772 4.99644 1.5 4.54872 1.5 3.99644C1.5 3.44415 1.94772 2.99644 2.5 2.99644H8.5C9.05228 2.99644 9.5 3.44415 9.5 3.99644V9.99644C9.5 10.5487 9.05228 10.9964 8.5 10.9964C7.94772 10.9964 7.5 10.5487 7.5 9.99644V6.63432C5.97153 7.9184 5 9.84396 5 11.9964C5 15.2225 7.1823 17.9388 10.1512 18.7497Z" fill="white" style="fill:white;fill-opacity:1;"/>
</svg>
