<svg width="24" height="24" viewBox="0 0 24 24" fill="none" xmlns="http://www.w3.org/2000/svg">
<path fill-rule="evenodd" clip-rule="evenodd" d="M2 17C2 15.8954 2.89543 15 4 15H20C21.1046 15 22 15.8954 22 17C22 18.1046 21.1046 19 20 19H4C2.89543 19 2 18.1046 2 17ZM3 17C3 16.4477 3.44772 16 4 16C4.55228 16 5 16.4477 5 17C5 17.5523 4.55228 18 4 18C3.44772 18 3 17.5523 3 17ZM14 16C13.4477 16 13 16.4477 13 17C13 17.5523 13.4477 18 14 18H20C20.5523 18 21 17.5523 21 17C21 16.4477 20.5523 16 20 16H14Z" fill="white" style="fill:white;fill-opacity:1;"/>
<path fill-rule="evenodd" clip-rule="evenodd" d="M2 12C2 10.8954 2.89543 10 4 10H20C21.1046 10 22 10.8954 22 12C22 13.1046 21.1046 14 20 14H4C2.89543 14 2 13.1046 2 12ZM3 12C3 11.4477 3.44772 11 4 11C4.55228 11 5 11.4477 5 12C5 12.5523 4.55228 13 4 13C3.44772 13 3 12.5523 3 12ZM14 11C13.4477 11 13 11.4477 13 12C13 12.5523 13.4477 13 14 13H20C20.5523 13 21 12.5523 21 12C21 11.4477 20.5523 11 20 11H14Z" fill="white" style="fill:white;fill-opacity:1;"/>
<path fill-rule="evenodd" clip-rule="evenodd" d="M2 7C2 5.89543 2.89543 5 4 5H20C21.1046 5 22 5.89543 22 7C22 8.10457 21.1046 9 20 9H4C2.89543 9 2 8.10457 2 7ZM3 7C3 6.44772 3.44772 6 4 6C4.55228 6 5 6.44772 5 7C5 7.55228 4.55228 8 4 8C3.44772 8 3 7.55228 3 7ZM14 6C13.4477 6 13 6.44772 13 7C13 7.55228 13.4477 8 14 8H20C20.5523 8 21 7.55228 21 7C21 6.44772 20.5523 6 20 6H14Z" fill="white" style="fill:white;fill-opacity:1;"/>
</svg>
