<svg width="24" height="24" viewBox="0 0 24 24" fill="none" xmlns="http://www.w3.org/2000/svg">
<path fill-rule="evenodd" clip-rule="evenodd" d="M2.5 9.41372V14.5863C2.5 15.0755 2.5 15.3201 2.55526 15.5502C2.60425 15.7543 2.68506 15.9494 2.79472 16.1283C2.9184 16.3302 3.09135 16.5031 3.43726 16.849L7.15098 20.5627C7.49688 20.9086 7.66983 21.0816 7.87167 21.2053C8.05061 21.3149 8.2457 21.3957 8.44977 21.4447C8.67995 21.5 8.92454 21.5 9.41372 21.5H14.5863C15.0755 21.5 15.3201 21.5 15.5502 21.4447C15.7543 21.3957 15.9494 21.3149 16.1283 21.2053C16.3302 21.0816 16.5031 20.9086 16.849 20.5627L20.5627 16.849C20.9086 16.5031 21.0816 16.3302 21.2053 16.1283C21.3149 15.9494 21.3957 15.7543 21.4447 15.5502C21.5 15.3201 21.5 15.0755 21.5 14.5863V9.41372C21.5 8.92454 21.5 8.67995 21.4447 8.44977C21.3957 8.2457 21.3149 8.05061 21.2053 7.87167C21.0816 7.66983 20.9086 7.49688 20.5627 7.15098L16.849 3.43726C16.5031 3.09136 16.3302 2.9184 16.1283 2.79472C15.9494 2.68506 15.7543 2.60425 15.5502 2.55526C15.3201 2.5 15.0755 2.5 14.5863 2.5H9.41372C8.92454 2.5 8.67995 2.5 8.44977 2.55526C8.2457 2.60425 8.05061 2.68506 7.87167 2.79472C7.66983 2.9184 7.49688 3.09135 7.15098 3.43726L3.43726 7.15098C3.09136 7.49688 2.9184 7.66983 2.79472 7.87167C2.68506 8.05061 2.60425 8.2457 2.55526 8.44977C2.5 8.67995 2.5 8.92454 2.5 9.41372ZM11 7C11 6.44772 11.4477 6 12 6C12.5523 6 13 6.44772 13 7V13C13 13.5523 12.5523 14 12 14C11.4477 14 11 13.5523 11 13V7ZM11 17C11 16.4477 11.4477 16 12 16C12.5523 16 13 16.4477 13 17C13 17.5523 12.5523 18 12 18C11.4477 18 11 17.5523 11 17Z" fill="white" style="fill:white;fill-opacity:1;"/>
</svg>
